<?xml version="1.0" encoding="utf-8"?>
<!-- Generator: Adobe Illustrator 23.0.3, SVG Export Plug-In . SVG Version: 6.00 Build 0)  -->
<svg version="1.1" id="Layer_1" xmlns="http://www.w3.org/2000/svg" xmlns:xlink="http://www.w3.org/1999/xlink" x="0px" y="0px"
	 viewBox="0 0 916.5 144" style="enable-background:new 0 0 916.5 144;" xml:space="preserve">
<style type="text/css">
	.st0{fill:#1B4687;}
	.st1{fill:#1FBDCC;}
	.st2{fill-rule:evenodd;clip-rule:evenodd;fill:#1B4687;}
</style>
<g>
	<g>
		<g>
			<path class="st0" d="M223.5,114.9c-29.7,0-51.8-22-51.8-51.2c0-29.3,22.2-51.3,51.9-51.3c25.5,0,45.3,16.9,49.3,41.6l-27.2,0
				c-3.3-10-11.8-16.5-22-16.5c-13.8,0-23.9,11.1-23.9,26.2c0,15,10.1,26,23.9,26c10.8,0,19.3-7,22.1-17.9l27.5,0
				C269.4,97.5,249.5,114.9,223.5,114.9L223.5,114.9z"/>
			<path class="st0" d="M364.8,37.2l-0.1,75.2l-20,0l-2.2-5.3c-6.2,5-14,7.9-22.7,7.8c-23,0-39.4-16.8-39.4-40.2
				c0-23.3,16.5-39.9,39.5-39.8c8.9,0,16.8,3,23,8.1l2.7-5.8L364.8,37.2z M340.1,74.8c0-9.8-7.1-17.1-16.8-17.1
				c-9.8,0-16.8,7.3-16.8,17.1c0,9.8,7.1,17.2,16.8,17.2C332.9,92,340.1,84.7,340.1,74.8z"/>
			<path class="st0" d="M430,37l0,23.7l-10.1,0c-9.2,0-13,4-13,13.6l0,38.2l-25.9,0l0.1-75.2l17.4,0l4,8.3
				c5.3-6.1,11.8-8.7,20.7-8.7L430,37z"/>
			<path class="st1" d="M502.7,61.1c9.2,4.4,14.9,13.1,14.9,23.7c0,15.8-13.6,27.8-31.6,27.7l-44.9,0l0.1-97.5l44,0
				c17.3,0,29.9,10.6,29.9,25C515.1,48.8,510.2,56.6,502.7,61.1L502.7,61.1z M491.1,81.6c0-5.2-3.8-8.8-9.6-8.8l-14.6,0l0,17.7
				l14.6,0C487.3,90.5,491.1,86.9,491.1,81.6z M489.6,44.5c0-5.1-3.5-8.5-9.1-8.5l-13.6,0l0,17l13.6,0
				C486.1,53,489.6,49.5,489.6,44.5L489.6,44.5z"/>
			<path class="st1" d="M529.5,80.3l0-42.9l25.9,0l0,41.8c0,7.9,4.3,12.6,11.2,12.6c6.9,0,11.1-4.7,11.1-12.6l0-41.8l25.9,0l0,42.9
				c0,21-14.8,34.7-37,34.7C544.4,115.1,529.5,101.4,529.5,80.3z"/>
			<path class="st1" d="M697.6,37.5L666,109.3c-10.2,23-19.5,31.3-38.9,31.3l-8.9,0l0-22.3l7.1,0c9.9,0,12.9-2.6,16.4-11.9l-31-69
				l28.1,0l15.9,41.4l14.9-41.4L697.6,37.5z"/>
			<path class="st1" d="M779.1,74.4c0,2.3-0.2,4.5-0.5,6.9l-55.8,0c1.7,8.6,7.2,13.1,15.3,13.1c6.1,0,11.1-2.6,13.6-7l25.8,0
				c-5.3,17.2-20.5,27.9-39.4,27.9c-23.5,0-40.8-17.2-40.8-40.2c0-23.1,17.3-40,40.9-40C762.4,35.1,779.2,52.4,779.1,74.4
				L779.1,74.4z M723.2,66.9l30.4,0c-2.3-7.5-7.7-11.6-15.5-11.6C730.6,55.4,725.3,59.5,723.2,66.9z"/>
			<path class="st1" d="M839.9,37.2l0,23.7l-10.1,0c-9.2,0-13,4-13,13.6l0,38.2l-25.9,0l0.1-75.2l17.4,0l4,8.3
				c5.3-6.1,11.8-8.7,20.7-8.7L839.9,37.2z"/>
			<path class="st1" d="M878.4,115.3c-20.5,0-32.9-10.8-33.2-27.1l24.9,0c0,5.5,3.8,8,8.7,8c3.8,0,7.4-1.9,7.4-5.8
				c0-4.3-5.7-5.6-12.9-6.8c-11.7-1.9-27.1-5.4-27.1-23.7c0-15.1,12.9-24.8,32.1-24.8c19.2,0,31.6,10.2,31.8,25.4l-24.3,0
				c0-4.8-3.2-7-7.9-7c-4.2,0-6.9,2.1-6.9,5.5c0,4.3,5.7,5.3,12.9,6.6c11.9,2.1,27.7,4.6,27.7,23.7
				C911.7,105,898.4,115.3,878.4,115.3L878.4,115.3z"/>
		</g>
	</g>
	<g>
		<g>
			<path class="st2" d="M111.2,19.3c3.3,0.4,8.2,1.7,10.2,4.5c2.4,8.2,4.8,16.5,7.1,24.7c3.2-2.2,20.8-3.9,20.8,5.8
				c0,7.1-6.7,6.9-11.5,6.9c1.3,2.8,2.4,7.1,2.6,13.2c0,11.7,0.2,23.6,0.2,35.5c0,2.2-1.9,3.9-4.1,3.9h-17.6c-2,0-3.9-1.7-3.9-3.9
				v-4.6H39.3v4.6c0,2.2-1.7,3.9-3.9,3.9H17.8c-2,0-3.9-1.7-3.9-3.9c0-11.9,0-23.8,0.2-35.5c0-6.1,1.1-10.4,2.6-13.2
				c-5,0-11.5,0.2-11.5-7.1c0-8.7,16.9-8.4,20.8-5.6c2.2-8.2,4.5-16.5,6.9-24.7c2.2-2.8,6.9-4.1,10.2-4.5
				C65.9,15.8,88.5,15.8,111.2,19.3L111.2,19.3z"/>
		</g>
	</g>
	<path class="st1" d="M82.8,57.7h-3.5V45.1h11c1.6,0,2.8-1.3,2.8-2.8s-1.3-2.8-2.8-2.8l-11,0V34c0-1.6-1.3-2.8-2.8-2.8
		c-1.6,0-2.8,1.3-2.8,2.8v5.4h-3.5c-6.6,0-11.9,5.4-11.9,12c0,6.6,5.4,11.9,11.9,11.9h3.5v12.6H61.1c-1.6,0-2.8,1.3-2.8,2.8
		c0,1.6,1.3,2.8,2.8,2.8h12.6V87c0,1.6,1.3,2.8,2.8,2.8c1.6,0,2.8-1.3,2.8-2.8v-5.4h3.5c6.6,0,11.9-5.4,11.9-11.9
		C94.7,63,89.4,57.7,82.8,57.7L82.8,57.7z M70.2,57.7c-3.5,0-6.3-2.8-6.3-6.3c0-3.5,2.8-6.3,6.3-6.3h3.5v12.6L70.2,57.7z M82.8,75.9
		h-3.5V63.3h3.5c3.5,0,6.3,2.8,6.3,6.3C89.1,73.1,86.2,75.9,82.8,75.9L82.8,75.9z"/>
</g>
<g>
	<path class="st0" d="M791.2,132.9h5.3v5.1h-5.3V132.9z"/>
	<path class="st0" d="M807.6,138.5c-5.1,0-8.8-3.6-8.8-8.5c0-4.9,3.7-8.4,8.8-8.4c4.5,0,7.8,2.8,8.4,7.1h-5.3
		c-0.5-1.3-1.7-2.1-3.1-2.1c-1.9,0-3.3,1.5-3.3,3.5c0,2.1,1.4,3.6,3.3,3.6c1.5,0,2.7-0.9,3.1-2.3h5.4
		C815.5,135.6,812.1,138.5,807.6,138.5L807.6,138.5z"/>
	<path class="st0" d="M817.6,130c0-4.9,3.7-8.5,8.9-8.5c5.2,0,8.9,3.5,8.9,8.5c0,4.9-3.8,8.5-8.9,8.5
		C821.3,138.5,817.6,135,817.6,130z M826.5,133.6c2,0,3.4-1.5,3.4-3.6c0-2.1-1.4-3.6-3.4-3.6c-2,0-3.4,1.5-3.4,3.6
		C823.1,132.2,824.5,133.6,826.5,133.6L826.5,133.6z"/>
	<path class="st0" d="M862.4,128v10H857v-9.3c0-1.7-0.6-2.5-1.8-2.5c-1.5,0-2.3,1-2.3,3v8.7h-5.3v-9.3c0-1.6-0.6-2.5-1.8-2.5
		c-1.5,0-2.3,1.1-2.3,3v8.7H838v-15.9h3.9l0.8,1.7c1.2-1.3,2.8-2.2,4.7-2.2c1.9,0,3.6,0.9,4.6,2.3c1.1-1.4,2.9-2.3,4.9-2.3
		C860.2,121.6,862.4,124.3,862.4,128z"/>
	<path class="st0" d="M865.5,132.9h5.3v5.1h-5.3V132.9z"/>
	<path class="st0" d="M891,122.1V138h-4.2l-0.5-1.1c-1.3,1.1-3,1.7-4.8,1.7c-4.9,0-8.4-3.6-8.4-8.5c0-4.9,3.5-8.4,8.4-8.4
		c1.9,0,3.6,0.6,4.9,1.7l0.6-1.2H891z M885.8,130c0-2.1-1.5-3.6-3.6-3.6c-2.1,0-3.6,1.6-3.6,3.6c0,2.1,1.5,3.6,3.6,3.6
		C884.3,133.7,885.8,132.1,885.8,130z"/>
	<path class="st0" d="M894.3,131.2v-9.1h5.5v8.9c0,1.7,0.9,2.7,2.4,2.7s2.4-1,2.4-2.7v-8.9h5.5v9.1c0,4.5-3.1,7.4-7.8,7.4
		S894.3,135.6,894.3,131.2z"/>
</g>
</svg>
